<svg xmlns="http://www.w3.org/2000/svg" id="download-on-the-app-store-apple" width="145.755" height="43.187" viewBox="0 0 145.755 43.187">
    <defs>
        <style>
            .cls-1{fill:#fff}.cls-2{fill:#a6a6a6}
        </style>
    </defs>
    <path id="Trazado_8" d="M147.39 40.688a4.137 4.137 0 0 1-4.142 4.136H7.709a4.142 4.142 0 0 1-4.147-4.136V7.7a4.148 4.148 0 0 1 4.147-4.139h135.538a4.141 4.141 0 0 1 4.142 4.139v32.988z" class="cls-1" data-name="Trazado 8" transform="translate(-2.6 -2.6)"/>
    <path id="Trazado_9" d="M140.648 43.187H5.109A5.109 5.109 0 0 1 0 38.09V5.1A5.112 5.112 0 0 1 5.109 0h135.538a5.114 5.114 0 0 1 5.109 5.1v32.988a5.108 5.108 0 0 1-5.107 5.1z" class="cls-2" data-name="Trazado 9"/>
    <path id="Trazado_10" d="M147.39 40.688a4.137 4.137 0 0 1-4.142 4.136H7.709a4.142 4.142 0 0 1-4.147-4.136V7.7a4.148 4.148 0 0 1 4.147-4.139h135.538a4.141 4.141 0 0 1 4.142 4.139v32.988z" data-name="Trazado 10" transform="translate(-2.6 -2.6)"/>
    <path id="Trazado_11" d="M69.923 39.527a6.26 6.26 0 0 1 2.983-5.253 6.414 6.414 0 0 0-5.051-2.73c-2.125-.224-4.186 1.271-5.268 1.271-1.1 0-2.771-1.25-4.567-1.213a6.725 6.725 0 0 0-5.661 3.452c-2.448 4.237-.622 10.463 1.723 13.887 1.173 1.678 2.544 3.55 4.338 3.484 1.755-.071 2.411-1.118 4.53-1.118 2.1 0 2.715 1.118 4.545 1.076 1.884-.029 3.07-1.685 4.2-3.377a13.843 13.843 0 0 0 1.922-3.913 6.057 6.057 0 0 1-3.694-5.566zm-3.457-10.236a6.161 6.161 0 0 0 1.411-4.416 6.279 6.279 0 0 0-4.06 2.1 5.863 5.863 0 0 0-1.448 4.253 5.187 5.187 0 0 0 4.1-1.936z" class="cls-1" data-name="Trazado 11" transform="translate(-37.377 -18.161)"/>
    <g id="Grupo_22" data-name="Grupo 22" transform="translate(45.835 19.438)">
        <path id="Trazado_13" d="M181.948 86.6H179.5l-1.344-4.222h-4.676L172.2 86.6h-2.388l4.629-14.372h2.859zm-4.2-5.993l-1.215-3.753q-.193-.575-.725-2.707h-.043q-.214.917-.683 2.707l-1.195 3.753zm16.083.684a5.868 5.868 0 0 1-1.437 4.178 4.213 4.213 0 0 1-3.2 1.365 3.2 3.2 0 0 1-2.96-1.47V90.8h-2.3V79.644q0-1.66-.085-3.406h2.025L186 77.88h.043a4.1 4.1 0 0 1 6.558-.407 5.73 5.73 0 0 1 1.228 3.819zm-2.346.084a4.272 4.272 0 0 0-.683-2.5 2.36 2.36 0 0 0-2-1.023 2.4 2.4 0 0 0-1.546.565 2.62 2.62 0 0 0-.906 1.483 3.006 3.006 0 0 0-.107.7v1.729a2.772 2.772 0 0 0 .694 1.909 2.3 2.3 0 0 0 1.8.779 2.361 2.361 0 0 0 2.025-1 4.41 4.41 0 0 0 .721-2.641zm14.269-.084a5.867 5.867 0 0 1-1.437 4.178 4.215 4.215 0 0 1-3.2 1.365 3.2 3.2 0 0 1-2.96-1.47V90.8h-2.3V79.644q0-1.66-.085-3.406h2.028l.129 1.643h.043a4.1 4.1 0 0 1 6.559-.407 5.735 5.735 0 0 1 1.225 3.819zm-2.347.084a4.272 4.272 0 0 0-.684-2.5 2.356 2.356 0 0 0-2-1.023 2.4 2.4 0 0 0-1.548.565 2.618 2.618 0 0 0-.905 1.483 3.077 3.077 0 0 0-.108.7v1.729a2.782 2.782 0 0 0 .692 1.909 2.307 2.307 0 0 0 1.8.779 2.358 2.358 0 0 0 2.025-1 4.41 4.41 0 0 0 .721-2.641zm15.678 1.193a3.839 3.839 0 0 1-1.278 2.986 5.665 5.665 0 0 1-3.916 1.258 6.837 6.837 0 0 1-3.723-.9L210.7 84a6.409 6.409 0 0 0 3.327.9 3.14 3.14 0 0 0 2.025-.586 1.915 1.915 0 0 0 .727-1.566 2.007 2.007 0 0 0-.6-1.472 5.548 5.548 0 0 0-1.983-1.108q-3.776-1.408-3.777-4.117a3.635 3.635 0 0 1 1.333-2.9 5.272 5.272 0 0 1 3.53-1.131 6.978 6.978 0 0 1 3.263.683l-.578 1.877a5.707 5.707 0 0 0-2.762-.661 2.809 2.809 0 0 0-1.906.6 1.709 1.709 0 0 0-.578 1.3 1.76 1.76 0 0 0 .662 1.407 7.46 7.46 0 0 0 2.089 1.108 7.083 7.083 0 0 1 2.73 1.747 3.642 3.642 0 0 1 .88 2.488zm7.634-4.6h-2.539V83q0 1.92 1.344 1.918a4.047 4.047 0 0 0 1.023-.107l.064 1.748a5.219 5.219 0 0 1-1.791.255 2.761 2.761 0 0 1-2.134-.833 4.082 4.082 0 0 1-.768-2.794v-5.226H220.4v-1.728h1.512v-1.9l2.262-.683v2.58h2.539zm11.431 3.368a5.684 5.684 0 0 1-1.365 3.924 4.868 4.868 0 0 1-3.8 1.578 4.64 4.64 0 0 1-3.637-1.512 5.511 5.511 0 0 1-1.355-3.817 5.638 5.638 0 0 1 1.4-3.944 4.842 4.842 0 0 1 3.766-1.536 4.738 4.738 0 0 1 3.667 1.514 5.44 5.44 0 0 1 1.322 3.791zm-2.387.053a4.64 4.64 0 0 0-.617-2.445 2.28 2.28 0 0 0-2.07-1.234 2.313 2.313 0 0 0-2.112 1.234 4.716 4.716 0 0 0-.618 2.488 4.626 4.626 0 0 0 .618 2.446 2.362 2.362 0 0 0 4.162-.021 4.658 4.658 0 0 0 .634-2.47zm9.877-3.124a4.009 4.009 0 0 0-.726-.064 2.174 2.174 0 0 0-1.878.918 3.457 3.457 0 0 0-.575 2.047V86.6h-2.3v-7.1q0-1.632-.067-3.263h2.006l.084 1.983h.064a3.555 3.555 0 0 1 1.152-1.643 2.785 2.785 0 0 1 1.665-.555 3.7 3.7 0 0 1 .576.042zm10.3 2.666a5.4 5.4 0 0 1-.084 1.044h-6.909a3.005 3.005 0 0 0 1 2.348 3.428 3.428 0 0 0 2.26.724 7.643 7.643 0 0 0 2.8-.489l.361 1.6a8.645 8.645 0 0 1-3.475.64 5.039 5.039 0 0 1-3.787-1.417 5.238 5.238 0 0 1-1.375-3.806 5.935 5.935 0 0 1 1.281-3.9 4.414 4.414 0 0 1 3.624-1.662 3.863 3.863 0 0 1 3.393 1.662 5.592 5.592 0 0 1 .914 3.259zm-2.2-.6a3.116 3.116 0 0 0-.447-1.77 2.011 2.011 0 0 0-1.834-.961 2.184 2.184 0 0 0-1.833.938 3.439 3.439 0 0 0-.682 1.791z" class="cls-1" data-name="Trazado 13" transform="translate(-169.812 -72.016)"/>
    </g>
    <g id="Grupo_23" data-name="Grupo 23" transform="translate(47.184 7.077)">
        <path id="Trazado_14" d="M176.462 33.712a14.709 14.709 0 0 1-1.656-.084v-6.949a12.54 12.54 0 0 1 1.95-.147c2.641 0 3.858 1.3 3.858 3.417 0 2.443-1.437 3.763-4.152 3.763zm.387-6.289a4.622 4.622 0 0 0-.912.073v5.282a5.978 5.978 0 0 0 .765.031 2.5 2.5 0 0 0 2.716-2.83 2.3 2.3 0 0 0-2.569-2.556zm7.555 6.342a2.424 2.424 0 0 1-2.453-2.62 2.481 2.481 0 0 1 2.538-2.693 2.4 2.4 0 0 1 2.453 2.61 2.5 2.5 0 0 1-2.542 2.703zm.043-4.486c-.818 0-1.342.765-1.342 1.834 0 1.049.535 1.813 1.331 1.813s1.331-.818 1.331-1.835c.001-1.037-.523-1.812-1.319-1.812zm10.983-.723l-1.593 5.093H192.8l-.66-2.212a16.761 16.761 0 0 1-.409-1.645h-.022a11.024 11.024 0 0 1-.408 1.645l-.7 2.212h-1.049l-1.5-5.093h1.163l.577 2.421q.2.865.346 1.635h.022c.083-.429.219-.964.419-1.624l.724-2.431h.923l.692 2.379c.167.577.3 1.143.409 1.677h.03a14.662 14.662 0 0 1 .346-1.677l.619-2.379h1.112zm5.866 5.093h-1.132v-2.924c0-.9-.346-1.352-1.027-1.352A1.176 1.176 0 0 0 198 30.62v3.029h-1.132v-3.637c0-.45-.011-.933-.042-1.457h1l.053.786h.031a1.83 1.83 0 0 1 1.615-.89c1.069 0 1.772.818 1.772 2.148v3.05zm3.122 0h-1.133v-7.43h1.133zm4.128.116a2.425 2.425 0 0 1-2.453-2.62 2.481 2.481 0 0 1 2.536-2.693 2.4 2.4 0 0 1 2.453 2.61 2.5 2.5 0 0 1-2.536 2.703zm.042-4.486c-.818 0-1.342.765-1.342 1.834 0 1.049.536 1.813 1.33 1.813s1.331-.818 1.331-1.835c0-1.037-.522-1.812-1.319-1.812zm6.958 4.371l-.082-.586h-.03a1.739 1.739 0 0 1-1.49.7 1.481 1.481 0 0 1-1.561-1.5c0-1.257 1.09-1.907 2.977-1.907v-.094c0-.671-.355-1.007-1.058-1.007a2.384 2.384 0 0 0-1.331.378l-.23-.744a3.257 3.257 0 0 1 1.749-.441c1.331 0 2 .7 2 2.107v1.876a7.69 7.69 0 0 0 .073 1.216h-1.021zm-.156-2.537c-1.257 0-1.888.3-1.888 1.027a.722.722 0 0 0 .777.8 1.084 1.084 0 0 0 1.112-1.037zm6.6 2.537l-.053-.818h-.031a1.708 1.708 0 0 1-1.636.933 2.321 2.321 0 0 1-2.138-2.6c0-1.593.943-2.715 2.231-2.715a1.531 1.531 0 0 1 1.437.692h.023v-2.923h1.133v6.058c0 .492.012.954.042 1.373h-1.008zm-.167-3a1.232 1.232 0 0 0-1.193-1.321c-.839 0-1.352.744-1.352 1.792 0 1.027.533 1.73 1.33 1.73a1.271 1.271 0 0 0 1.215-1.352v-.849zm8.318 3.112a2.424 2.424 0 0 1-2.452-2.62 2.481 2.481 0 0 1 2.536-2.693 2.4 2.4 0 0 1 2.453 2.61 2.494 2.494 0 0 1-2.538 2.7zm.042-4.486c-.817 0-1.341.765-1.341 1.834 0 1.049.535 1.813 1.33 1.813s1.331-.818 1.331-1.835c.003-1.034-.521-1.809-1.319-1.809zm8.584 4.371h-1.133v-2.922c0-.9-.346-1.352-1.027-1.352a1.175 1.175 0 0 0-1.131 1.247v3.029h-1.133v-3.637c0-.45-.011-.933-.042-1.457h1l.053.786h.031a1.829 1.829 0 0 1 1.614-.891c1.069 0 1.773.818 1.773 2.148zm7.617-4.244h-1.246v2.473c0 .63.218.944.659.944a2.23 2.23 0 0 0 .5-.053l.031.86a2.508 2.508 0 0 1-.878.126c-.892 0-1.426-.492-1.426-1.782v-2.566h-.743v-.849h.743v-.933l1.112-.336v1.268h1.246zm5.993 4.244h-1.131v-2.9c0-.911-.345-1.373-1.027-1.373a1.11 1.11 0 0 0-1.133 1.205v3.07h-1.131v-7.43h1.131v3.06h.023a1.718 1.718 0 0 1 1.532-.828c1.078 0 1.737.838 1.737 2.17zm6.14-2.274h-3.4a1.462 1.462 0 0 0 1.605 1.509 3.827 3.827 0 0 0 1.373-.241l.176.786a4.254 4.254 0 0 1-1.709.314 2.365 2.365 0 0 1-2.536-2.567 2.488 2.488 0 0 1 2.409-2.736 2.139 2.139 0 0 1 2.118 2.421 2.18 2.18 0 0 1-.035.516zm-1.038-.807c0-.786-.4-1.341-1.12-1.341a1.343 1.343 0 0 0-1.238 1.341z" class="cls-1" data-name="Trazado 14" transform="translate(-174.806 -26.219)"/>
    </g>
</svg>
