<svg xmlns="http://www.w3.org/2000/svg" width="75" height="75" viewBox="0 0 75 75">
    <defs>
        <style>
            .cls-1,.cls-4{fill:none}.cls-1{stroke:#fff;stroke-width:2px}.cls-2{fill:#fff}.cls-3{stroke:none}
        </style>
    </defs>
    <g id="Grupo_110" data-name="Grupo 110" transform="translate(-280 -3476)">
        <g id="Elipse_11" class="cls-1" data-name="Elipse 11" transform="translate(280 3476)">
            <circle cx="37.5" cy="37.5" r="37.5" class="cls-3"/>
            <circle cx="37.5" cy="37.5" r="36.5" class="cls-4"/>
        </g>
        <path id="Trazado_53" d="M134.382 103.325v2.193a5.97 5.97 0 0 0-2.216 1.03c-1.873 1.382-2.714 3.3-2.252 5.124a4.736 4.736 0 0 0 4.17 3.331c4.822.676 5.607 1.4 5.4 3.085a2.28 2.28 0 0 1-1.538 1.912c-1.539.626-4.206.36-6.7-1.642l-1.754 2.183a11.706 11.706 0 0 0 4.887 2.362v2.487h2.8v-2.34a6.939 6.939 0 0 0 1.819-.456 5.094 5.094 0 0 0 3.263-4.169 4.487 4.487 0 0 0-2.447-4.828 16.516 16.516 0 0 0-5.344-1.37 2.01 2.01 0 0 1-1.844-1.245c-.173-.684.275-1.5 1.2-2.182a3.548 3.548 0 0 1 3.528-.326 7.761 7.761 0 0 1 2.064 1.149l.9-1.075.9-1.072a10.334 10.334 0 0 0-2.818-1.6 8.478 8.478 0 0 0-1.218-.355v-2.2z" class="cls-2" data-name="Trazado 53" transform="translate(181.896 3399.063)"/>
        <g id="Grupo_44" data-name="Grupo 44" transform="rotate(60 88.256 3534.034)">
            <path id="Trazado_56" d="M299.585 65.3a20.434 20.434 0 0 0-15.357-19.8 1.616 1.616 0 0 0-.8 3.132 17.219 17.219 0 0 1 2.614 32.444l1.5-3.48a1.618 1.618 0 0 0-2.972-1.279l-2.915 6.79a1.626 1.626 0 0 0 .846 2.125l6.79 2.915a1.688 1.688 0 0 0 2.125-.846 1.626 1.626 0 0 0-.846-2.125l-2.953-1.27a20.406 20.406 0 0 0 11.971-18.6z" class="cls-2" data-name="Trazado 56" transform="translate(-93.677 3260.012)"/>
            <path id="Trazado_57" d="M54.756 50.79a17.219 17.219 0 0 1-2.868-32.331l-1.4 3.254a1.6 1.6 0 0 0 .846 2.125 1.581 1.581 0 0 0 2.125-.846l2.915-6.8a1.521 1.521 0 0 0-.846-2.125l-6.79-2.915a1.618 1.618 0 0 0-1.279 2.972l3.16 1.354a20.455 20.455 0 0 0 3.338 38.444 1.549 1.549 0 0 0 1.965-1.166 1.621 1.621 0 0 0-1.166-1.965z" class="cls-2" data-name="Trazado 57" transform="translate(126.4 3291.197)"/>
        </g>
    </g>
</svg>
