<svg xmlns="http://www.w3.org/2000/svg" width="7.247" height="13.405" viewBox="0 0 7.247 13.405">
    <defs>
        <style>
            .cls-1{fill:#fff}
        </style>
    </defs>
    <path id="Trazado_27" d="M29.051 0h-1.738A3.053 3.053 0 0 0 24.1 3.3v1.52h-1.75a.273.273 0 0 0-.273.273V7.3a.273.273 0 0 0 .273.273h1.75v5.561a.273.273 0 0 0 .273.273h2.28a.273.273 0 0 0 .273-.273V7.571h2.044a.273.273 0 0 0 .273-.273v-2.2a.274.274 0 0 0-.273-.273h-2.045V3.531c0-.62.148-.934.955-.934h1.171a.273.273 0 0 0 .273-.273V.276A.273.273 0 0 0 29.051 0z" class="cls-1" data-name="Trazado 27" transform="translate(-22.077)"/>
</svg>
