<svg xmlns="http://www.w3.org/2000/svg" width="75.875" height="10.253" viewBox="0 0 75.875 10.253">
    <defs>
        <style>
            .cls-1{fill:#161615}
        </style>
    </defs>
    <path id="Trazado_68" d="M14.5 492.743H7v10.094h1.759v-4.11h5.09v-1.6h-5.09v-2.783H14.5v-1.6zm6.4 0v10.094h1.759v-10.094zm15.85 6.98l-5.4-6.98h-1.634v10.094h1.759v-7.181l5.554 7.181h1.483v-10.094h-1.759v6.98zm12.966-5.336h3.2v-1.644h-8.187v1.644h3.2v8.45h1.788v-8.45zm17.9-1.644h-1.759v5.811a2.923 2.923 0 0 1-.683 2.105 2.474 2.474 0 0 1-1.87.707 2.441 2.441 0 0 1-1.884-.735 3.054 3.054 0 0 1-.683-2.149v-5.739h-1.758v5.811a5.6 5.6 0 0 0 .3 1.925 3.757 3.757 0 0 0 .865 1.392 3.577 3.577 0 0 0 1.355.844 5.28 5.28 0 0 0 1.774.281 5.389 5.389 0 0 0 1.8-.281 3.525 3.525 0 0 0 1.363-.851 3.878 3.878 0 0 0 .872-1.42 5.763 5.763 0 0 0 .31-1.976v-5.725zm15.259 0h-1.759v5.811a2.924 2.924 0 0 1-.683 2.105 2.475 2.475 0 0 1-1.87.707 2.441 2.441 0 0 1-1.884-.735 3.054 3.054 0 0 1-.679-2.148v-5.739h-1.763v5.811a5.6 5.6 0 0 0 .3 1.925 3.757 3.757 0 0 0 .865 1.392 3.577 3.577 0 0 0 1.355.844 5.281 5.281 0 0 0 1.774.281 5.389 5.389 0 0 0 1.8-.281 3.525 3.525 0 0 0 1.363-.851 3.878 3.878 0 0 0 .872-1.42 5.76 5.76 0 0 0 .31-1.976v-5.725z" class="cls-1" data-name="Trazado 68" transform="translate(-7 -492.743)"/>
</svg>
