<svg xmlns="http://www.w3.org/2000/svg" id="google-play-badge" width="146" height="43.259" viewBox="0 0 146 43.259">
    <defs>
        <style>
            .cls-1{fill:#a6a6a6}.cls-10,.cls-2,.cls-3{fill:#fff}.cls-2{stroke:#fff;stroke-miterlimit:10;stroke-width:.2px}.cls-4{fill:url(#linear-gradient)}.cls-5{fill:url(#linear-gradient-2)}.cls-6{fill:url(#linear-gradient-3)}.cls-7{fill:url(#linear-gradient-4)}.cls-8{opacity:.2}.cls-9{opacity:.12}.cls-10{opacity:.25}
        </style>
        <linearGradient id="linear-gradient" x1=".908" x2="-.383" y1="1.032" y2=".36" gradientUnits="objectBoundingBox">
            <stop offset="0" stop-color="#00a0ff"/>
            <stop offset=".007" stop-color="#00a1ff"/>
            <stop offset=".26" stop-color="#00beff"/>
            <stop offset=".512" stop-color="#00d2ff"/>
            <stop offset=".76" stop-color="#00dfff"/>
            <stop offset="1" stop-color="#00e3ff"/>
        </linearGradient>
        <linearGradient id="linear-gradient-2" x1="1.077" x2="-1.307" y1=".729" y2=".729" gradientUnits="objectBoundingBox">
            <stop offset="0" stop-color="#ffe000"/>
            <stop offset=".409" stop-color="#ffbd00"/>
            <stop offset=".775" stop-color="orange"/>
            <stop offset="1" stop-color="#ff9c00"/>
        </linearGradient>
        <linearGradient id="linear-gradient-3" x1=".864" x2="-.499" y1="-.023" y2="-1.789" gradientUnits="objectBoundingBox">
            <stop offset="0" stop-color="#ff3a44"/>
            <stop offset="1" stop-color="#c31162"/>
        </linearGradient>
        <linearGradient id="linear-gradient-4" x1="-.186" x2=".423" y1="2.701" y2="1.909" gradientUnits="objectBoundingBox">
            <stop offset="0" stop-color="#32a071"/>
            <stop offset=".069" stop-color="#2da771"/>
            <stop offset=".476" stop-color="#15cf74"/>
            <stop offset=".801" stop-color="#06e775"/>
            <stop offset="1" stop-color="#00f076"/>
        </linearGradient>
    </defs>
    <path id="Trazado_15" d="M140.593 43.259H5.407A5.355 5.355 0 0 1 0 37.852V5.407A5.355 5.355 0 0 1 5.407 0h135.186A5.355 5.355 0 0 1 146 5.407v32.445a5.355 5.355 0 0 1-5.407 5.407z" data-name="Trazado 15"/>
    <path id="Trazado_16" d="M140.593.865a4.57 4.57 0 0 1 4.542 4.542v32.445a4.57 4.57 0 0 1-4.542 4.542H5.407a4.57 4.57 0 0 1-4.542-4.542V5.407A4.57 4.57 0 0 1 5.407.865h135.186m0-.865H5.407A5.423 5.423 0 0 0 0 5.407v32.445a5.355 5.355 0 0 0 5.407 5.407h135.186A5.355 5.355 0 0 0 146 37.852V5.407A5.423 5.423 0 0 0 140.593 0z" class="cls-1" data-name="Trazado 16"/>
    <path id="Trazado_17" d="M47.889 10.469a2.946 2.946 0 0 1-.757 2.163 3.353 3.353 0 0 1-5.732-2.379A3.324 3.324 0 0 1 44.753 6.9a2.88 2.88 0 0 1 1.3.324 2.355 2.355 0 0 1 .973.757l-.541.541a2.017 2.017 0 0 0-1.73-.757 2.152 2.152 0 0 0-1.73.757 2.228 2.228 0 0 0-.757 1.839 2.228 2.228 0 0 0 .757 1.839 2.785 2.785 0 0 0 1.73.757 2.372 2.372 0 0 0 1.839-.757 1.791 1.791 0 0 0 .541-1.3h-2.382v-.865h3.136v.433zm4.975-2.7h-2.92V9.82h2.7v.757h-2.7v2.055h2.92v.868h-3.785V7.008h3.785zm3.569 5.731h-.865V7.765h-1.839v-.757h4.542v.757h-1.838zm4.975 0V7.008h.865V13.5zm4.542 0h-.865V7.765h-1.839v-.757h4.434v.757h-1.839V13.5zm10.274-.865a3.353 3.353 0 0 1-5.732-2.379 3.353 3.353 0 1 1 6.705 0 3.18 3.18 0 0 1-.973 2.376zm-4.11-.541a2.552 2.552 0 0 0 1.73.757 2.152 2.152 0 0 0 1.73-.757 2.609 2.609 0 0 0 .757-1.839 2.228 2.228 0 0 0-.757-1.839 2.552 2.552 0 0 0-1.73-.757 2.152 2.152 0 0 0-1.73.757 2.609 2.609 0 0 0-.757 1.839 2.228 2.228 0 0 0 .757 1.836zm6.273 1.406V7.008h.973l3.14 5.083V7.008h.865V13.5H82.5l-3.356-5.3v5.3z" class="cls-2" data-name="Trazado 17" transform="translate(3.373 .562)"/>
    <path id="Trazado_18" d="M70.3 22.183a4.55 4.55 0 0 0-4.65 4.65 4.616 4.616 0 0 0 4.65 4.65 4.55 4.55 0 0 0 4.65-4.65 4.487 4.487 0 0 0-4.65-4.65zm0 7.354a2.821 2.821 0 0 1 0-5.624 2.62 2.62 0 0 1 2.6 2.812 2.684 2.684 0 0 1-2.6 2.812zm-10.058-7.354a4.55 4.55 0 0 0-4.65 4.65 4.616 4.616 0 0 0 4.65 4.65 4.55 4.55 0 0 0 4.65-4.65 4.487 4.487 0 0 0-4.65-4.65zm0 7.354a2.821 2.821 0 0 1 0-5.624 2.62 2.62 0 0 1 2.6 2.812 2.684 2.684 0 0 1-2.6 2.812zm-12-5.948v1.947h4.65a4.089 4.089 0 0 1-1.081 2.487 4.787 4.787 0 0 1-3.569 1.406 5.035 5.035 0 0 1-5.083-5.191 5.1 5.1 0 0 1 5.083-5.191 5.362 5.362 0 0 1 3.569 1.406l1.406-1.406a6.93 6.93 0 0 0-4.871-1.947 7.3 7.3 0 0 0-7.246 7.138 7.3 7.3 0 0 0 7.246 7.138 6.224 6.224 0 0 0 4.975-2.055 6.51 6.51 0 0 0 1.73-4.542 4.055 4.055 0 0 0-.108-1.19zm49.1 1.514a4.2 4.2 0 0 0-3.893-2.92 4.356 4.356 0 0 0-4.326 4.65 4.526 4.526 0 0 0 4.542 4.65 4.436 4.436 0 0 0 3.785-2.055l-1.514-1.081a2.636 2.636 0 0 1-2.271 1.3 2.346 2.346 0 0 1-2.271-1.406l6.164-2.6-.216-.541zm-6.273 1.514a2.627 2.627 0 0 1 2.379-2.7 1.913 1.913 0 0 1 1.73.973zm-5.083 4.434h2.055V17.533h-2.06zm-3.244-7.895a3.561 3.561 0 0 0-2.487-1.081 4.647 4.647 0 0 0-4.434 4.65 4.478 4.478 0 0 0 4.434 4.542 3.105 3.105 0 0 0 2.379-1.081h.108v.649a2.459 2.459 0 0 1-4.759 1.081l-1.73.757a4.462 4.462 0 0 0 4.11 2.7c2.379 0 4.326-1.406 4.326-4.759V22.4h-1.952v.757zm-2.379 6.381a2.821 2.821 0 0 1 0-5.624 2.6 2.6 0 0 1 2.487 2.812 2.6 2.6 0 0 1-2.492 2.812zm26.388-12h-4.867v13.514h2.055v-5.083h2.812a4.223 4.223 0 1 0 0-8.436zm.108 6.489h-2.92v-4.65h2.92a2.375 2.375 0 0 1 2.379 2.271 2.475 2.475 0 0 1-2.379 2.379zm12.437-1.947a3.635 3.635 0 0 0-3.569 2.055l1.839.757a1.91 1.91 0 0 1 1.839-.973 2.032 2.032 0 0 1 2.163 1.73v.108a4.29 4.29 0 0 0-2.055-.541c-1.947 0-3.893 1.081-3.893 3.028a3.168 3.168 0 0 0 3.353 3.028 3.043 3.043 0 0 0 2.6-1.3h.108v1.081h1.947V25.86a4.093 4.093 0 0 0-4.337-3.785zm-.216 7.462c-.649 0-1.622-.324-1.622-1.19 0-1.081 1.19-1.406 2.163-1.406a4.182 4.182 0 0 1 1.839.433 2.519 2.519 0 0 1-2.385 2.159zm11.35-7.141l-2.271 5.84h-.108l-2.379-5.84h-2.163l3.569 8.219-2.055 4.542h2.055l5.515-12.761zm-18.169 8.652h2.055V17.533h-2.055z" class="cls-3" data-name="Trazado 18" transform="translate(3.349 1.393)"/>
    <g id="Grupo_24" data-name="Grupo 24" transform="translate(10.815 7.73)">
        <path id="Trazado_19" d="M10.433 7.5A2.114 2.114 0 0 0 10 9.014v23.9a2.139 2.139 0 0 0 .541 1.514l.108.108 13.41-13.41v-.216z" class="cls-4" data-name="Trazado 19" transform="translate(-10 -7.118)"/>
        <path id="Trazado_20" d="M27.334 24.993L22.9 20.559v-.324l4.434-4.435.108.108 5.3 3.028c1.514.865 1.514 2.271 0 3.136z" class="cls-5" data-name="Trazado 20" transform="translate(-8.949 -6.442)"/>
        <path id="Trazado_21" d="M28.461 24.542L23.919 20 10.4 33.518c.541.541 1.3.541 2.271.108l15.79-9.084" class="cls-6" data-name="Trazado 21" transform="translate(-9.967 -6.1)"/>
        <path id="Trazado_22" d="M28.461 16.5l-15.79-8.973a1.753 1.753 0 0 0-2.271.108l13.519 13.41z" class="cls-7" data-name="Trazado 22" transform="translate(-9.967 -7.145)"/>
        <path id="Trazado_23" d="M28.353 24.1l-15.682 8.868a1.769 1.769 0 0 1-2.163 0l-.108.108.108.108a1.769 1.769 0 0 0 2.163 0z" class="cls-8" data-name="Trazado 23" transform="translate(-9.967 -5.766)"/>
        <path id="Trazado_24" d="M10.433 33.3A2.114 2.114 0 0 1 10 31.788v.112a2.139 2.139 0 0 0 .541 1.514V33.3h-.108zm23.36-11.9l-5.407 3.028.108.108 5.3-3.028A1.8 1.8 0 0 0 34.874 20c0 .541-.433.973-1.081 1.406z" class="cls-9" data-name="Trazado 24" transform="translate(-10 -6.1)"/>
        <path id="Trazado_25" d="M12.7 7.637l21.089 12c.649.433 1.081.865 1.081 1.406a1.8 1.8 0 0 0-1.081-1.514l-21.089-12c-1.51-.865-2.7-.217-2.7 1.514v.108c0-1.622 1.19-2.379 2.7-1.514z" class="cls-10" data-name="Trazado 25" transform="translate(-10 -7.147)"/>
    </g>
</svg>
