<svg xmlns="http://www.w3.org/2000/svg" width="49.826" height="57.517" viewBox="0 0 49.826 57.517">
    <defs>
        <style>
            .cls-1{fill:#0090df;fill-rule:evenodd}
        </style>
    </defs>
    <g id="Grupo_86" data-name="Grupo 86" transform="translate(931.337 4235.568)">
        <g id="Grupo_17" data-name="Grupo 17" transform="translate(-931.337 -4235.568)">
            <path id="Trazado_4" d="M311.491 290.522l-4.72-2.725v24.979l-15.571 8.987-4.625-2.67 15.566-8.987v-24.979l-1.228-.709-3.573-2.063 4.625-2.67 9.688 5.594 4.458 2.573v19.529l-4.625 2.671v-19.53z" class="cls-1" data-name="Trazado 4" transform="translate(-266.504 -264.247)"/>
            <path id="Trazado_5" d="M243.742 231.435v5.45l21.633-12.49 15.566 8.987v5.341l-15.566-8.987-21.633 12.489v5.594l-4.625-2.671v-16.383l7.8-4.5 9.112-5.265 4.626 2.671-4.414 2.548-4.878 2.817-7.621 4.4z" class="cls-1" data-name="Trazado 5" transform="translate(-231.115 -219)"/>
            <path id="Trazado_6" d="M224.576 300.9l4.72-2.725-21.633-12.49V267.71l4.625-2.67v17.974L233.92 295.5l1.228-.71 3.529-2.037v5.347l-9.644 5.568-.467.27-3.99 2.3-3.99-2.3-.467-.27-3.343-1.93-9.113-5.26v-5.341l4.414 2.549 4.878 2.816 7.621 4.4z" class="cls-1" data-name="Trazado 6" transform="translate(-207.663 -253.327)"/>
        </g>
    </g>
</svg>
