<svg xmlns="http://www.w3.org/2000/svg" width="22.127" height="17.971" viewBox="0 0 22.127 17.971">
    <path d="M22.127 2.134a9.049 9.049 0 0 1-2.611.7 4.4 4.4 0 0 0 1.994-2.5 8.9 8.9 0 0 1-2.878 1.1 4.546 4.546 0 0 0-6.522-.105 4.371 4.371 0 0 0-1.327 3.208 5.033 5.033 0 0 0 .112 1.039 12.637 12.637 0 0 1-5.216-1.4A12.857 12.857 0 0 1 1.544.827a4.545 4.545 0 0 0-.07 4.451 4.53 4.53 0 0 0 1.474 1.614 4.5 4.5 0 0 1-2.047-.574v.056a4.382 4.382 0 0 0 1.03 2.885 4.462 4.462 0 0 0 2.6 1.565 4.7 4.7 0 0 1-1.193.154 5.785 5.785 0 0 1-.856-.07 4.545 4.545 0 0 0 4.24 3.145 8.879 8.879 0 0 1-5.63 1.937 9.656 9.656 0 0 1-1.091-.055 12.594 12.594 0 0 0 6.963 2.036 13.25 13.25 0 0 0 4.535-.765 11.526 11.526 0 0 0 3.623-2.05 13.717 13.717 0 0 0 2.59-2.955 13.179 13.179 0 0 0 1.622-3.489 12.889 12.889 0 0 0 .533-3.644q0-.393-.014-.59a9.5 9.5 0 0 0 2.274-2.344z" data-name="Trazado 72"/>
</svg>
