<svg xmlns="http://www.w3.org/2000/svg" width="16.125" height="19.033" viewBox="0 0 16.125 19.033">
    <defs>
        <style>
            .cls-1{fill:#d3d3d3;stroke:#fff;stroke-width:.5px}
        </style>
    </defs>
    <path id="Trazado_58" d="M166.234 113.413a5.277 5.277 0 0 0-5.273 5.273v2.543h-1.641a.9.9 0 0 0-.895.895v8.927a.9.9 0 0 0 .895.895h13.835a.9.9 0 0 0 .895-.895v-8.92a.9.9 0 0 0-.895-.895h-1.641v-2.543a5.29 5.29 0 0 0-5.28-5.28zm-3.483 5.28a3.483 3.483 0 1 1 6.966 0v2.543h-6.966v-2.543zm9.509 11.463h-12.045v-7.137h12.045z" class="cls-1" data-name="Trazado 58" transform="translate(-158.175 -113.163)"/>
</svg>
