<svg xmlns="http://www.w3.org/2000/svg" width="75" height="75" viewBox="0 0 75 75">
    <defs>
        <style>
            .cls-1,.cls-4{fill:none}.cls-1,.cls-2{stroke:#fff}.cls-1{stroke-width:2px}.cls-2{fill:#fff;stroke-width:.25px}.cls-3{stroke:none}
        </style>
    </defs>
    <g id="Grupo_73" data-name="Grupo 73" transform="translate(-1267 -3496)">
        <g id="Elipse_10" class="cls-1" data-name="Elipse 10" transform="translate(1267 3496)">
            <circle cx="37.5" cy="37.5" r="37.5" class="cls-3"/>
            <circle cx="37.5" cy="37.5" r="36.5" class="cls-4"/>
        </g>
        <path id="driving-school" d="M18.917 37.759a.947.947 0 0 1-1.273.42 15.463 15.463 0 0 1-6.81-6.81.948.948 0 0 1 1.693-.852 13.555 13.555 0 0 0 5.97 5.97.948.948 0 0 1 .42 1.272zM42.672.2a.947.947 0 0 0-.807-.178L24.526 4.17 7.188.026A.947.947 0 0 0 6.02.948V22.9a.947.947 0 0 0 .727.922l3.425.818a.948.948 0 1 0 .44-1.843l-2.7-.645v-20l15.667 3.74v4.847a.948.948 0 1 0 1.9 0V5.892l15.659-3.743v20l-3.09.739a.948.948 0 1 0 .441 1.843l3.818-.912a.947.947 0 0 0 .727-.922V.948A.948.948 0 0 0 42.672.2zm-6.9 24.284A11.247 11.247 0 1 1 24.526 13.24a11.26 11.26 0 0 1 11.248 11.248zm-12.193 3.157a3.306 3.306 0 0 1-2.206-2.206h-6.151a9.369 9.369 0 0 0 8.357 8.357zm.948-1.756a1.4 1.4 0 1 0-1.4-1.4 1.4 1.4 0 0 0 1.399 1.4zm9.3-.45H27.68a3.307 3.307 0 0 1-2.206 2.206v6.151a9.369 9.369 0 0 0 8.357-8.357zm0-1.9a9.353 9.353 0 0 0-18.609 0h6.151a3.293 3.293 0 0 1 6.307 0zm3.973-4.656a.947.947 0 0 0 .42-1.273 15.462 15.462 0 0 0-6.81-6.81.948.948 0 1 0-.852 1.693 13.555 13.555 0 0 1 5.97 5.97.947.947 0 0 0 1.273.42z" class="cls-2" transform="translate(1279.927 3515.647)"/>
    </g>
</svg>
