<svg xmlns="http://www.w3.org/2000/svg" width="48.553" height="44.534" viewBox="0 0 48.553 44.534">
    <g data-name="Grupo 40">
        <path d="M42.029 6.523a22.263 22.263 0 0 0-31.688.2 1.2 1.2 0 1 0 1.718 1.678 19.865 19.865 0 1 1-5.643 13.866v-.25l1.978 1.978a1.2 1.2 0 0 0 .849.35 1.22 1.22 0 0 0 .849-.35 1.2 1.2 0 0 0 0-1.7l-4.016-4.024a1.2 1.2 0 0 0-1.7 0L.352 22.297a1.202 1.202 0 0 0 1.7 1.7l1.976-1.98v.25a22.265 22.265 0 0 0 38.011 15.744 22.272 22.272 0 0 0-.01-31.488z" data-name="Trazado 40"/>
        <path d="M32.659 14.166L17.934 28.881a1.2 1.2 0 0 0 .849 2.048 1.22 1.22 0 0 0 .849-.35l14.725-14.725a1.2 1.2 0 1 0-1.7-1.688z" data-name="Trazado 41"/>
        <path d="M28.803 24.076a4.293 4.293 0 1 0 3.037-1.259 4.3 4.3 0 0 0-3.037 1.259zm4.375 4.376a1.864 1.864 0 0 1-1.339.549 1.888 1.888 0 0 1-1.339-3.227 1.865 1.865 0 0 1 1.339-.549 1.888 1.888 0 0 1 1.339 3.227z" data-name="Trazado 42"/>
        <path d="M20.772 13.097a4.3 4.3 0 1 0 3.037 1.259 4.27 4.27 0 0 0-3.037-1.259zm1.339 5.634a1.865 1.865 0 0 1-1.339.549 1.906 1.906 0 0 1-1.339-.549 1.864 1.864 0 0 1-.549-1.339 1.906 1.906 0 0 1 .549-1.339 1.865 1.865 0 0 1 1.339-.549 1.906 1.906 0 0 1 1.339.549 1.905 1.905 0 0 1 0 2.677z" data-name="Trazado 43"/>
    </g>
</svg>
