<svg xmlns="http://www.w3.org/2000/svg" width="15.55" height="20.765" viewBox="0 0 15.55 20.765">
    <defs>
        <style>
            .cls-1{fill:#d3d3d3;stroke:#fff;stroke-width:.25px}
        </style>
    </defs>
    <g id="Grupo_62" data-name="Grupo 62" transform="translate(-1472.349 -315.404)">
        <path id="Trazado_66" d="M167.5 236.4v4.869h15.3V236.4a5.458 5.458 0 0 0-5.492-5.5h-4.324a5.451 5.451 0 0 0-5.484 5.5zm5.492-3.607h4.324a3.715 3.715 0 0 1 3.693 3.7v3.062H169.3v-3.07a3.713 3.713 0 0 1 3.692-3.691z" class="cls-1" data-name="Trazado 66" transform="translate(1304.974 94.775)"/>
        <path id="Trazado_67" d="M213.822 108.02a4.411 4.411 0 1 0-4.411 4.42 4.42 4.42 0 0 0 4.411-4.42zm-7.023 0a2.612 2.612 0 1 1 2.612 2.612 2.61 2.61 0 0 1-2.611-2.612z" class="cls-1" data-name="Trazado 67" transform="translate(1270.718 211.929)"/>
    </g>
</svg>
