<svg xmlns="http://www.w3.org/2000/svg" width="14.518" height="13.878" viewBox="0 0 14.518 13.878">
    <defs>
        <style>
            .cls-1{fill:#fff}
        </style>
    </defs>
    <path id="Trazado_28" d="M3.5 2.11a1.623 1.623 0 0 1-1.76 1.617h-.02A1.622 1.622 0 1 1 1.76.491 1.617 1.617 0 0 1 3.5 2.11zM.183 14.368H3.3V5.006H.183zm10.752-9.581a3.092 3.092 0 0 0-2.806 1.546v.03h-.02a.151.151 0 0 0 .02-.03V5.007H5.017c.04.877 0 9.362 0 9.362h3.112V9.14a2.1 2.1 0 0 1 .1-.759 1.709 1.709 0 0 1 1.6-1.14c1.128 0 1.579.86 1.579 2.118v5.01h3.112V9c-.001-2.876-1.538-4.213-3.585-4.213z" class="cls-1" data-name="Trazado 28" transform="translate(0 -.491)"/>
</svg>
