<svg xmlns="http://www.w3.org/2000/svg" width="150.561" height="38.66" viewBox="0 0 150.561 38.66">
    <defs>
        <style>
            .cls-1{fill:#0090df;fill-rule:evenodd}.cls-2{fill:#161615}
        </style>
    </defs>
    <g id="Grupo_18" data-name="Grupo 18" transform="translate(931.337 4235.568)">
        <g id="Grupo_17" data-name="Grupo 17" transform="translate(-931.337 -4235.568)">
            <path id="Trazado_4" d="M303.323 286.969l-3.172-1.832v16.79l-10.463 6.041-3.109-1.795 10.463-6.041v-16.79l-.826-.477-2.4-1.387 3.109-1.795 6.512 3.76 3 1.73V298.3l-3.109 1.8v-13.131z" class="cls-1" data-name="Trazado 4" transform="translate(-273.086 -269.308)"/>
            <path id="Trazado_5" d="M242.225 227.358v3.663l14.54-8.395 10.463 6.041v3.59l-10.463-6.041-14.54 8.395v3.76l-3.109-1.795v-11.013l5.243-3.027 6.125-3.536 3.109 1.8-2.967 1.713-3.279 1.893-5.123 2.957z" class="cls-1" data-name="Trazado 5" transform="translate(-233.738 -219)"/>
            <path id="Trazado_6" d="M219.031 289.142l3.172-1.831-14.54-8.4v-12.077l3.109-1.795v12.081l14.54 8.395.826-.477 2.372-1.369v3.59L222.027 291l-.314.181-2.682 1.549-2.682-1.549-.314-.181-2.247-1.3-6.125-3.536v-3.59l2.967 1.713 3.279 1.893 5.123 2.958z" class="cls-1" data-name="Trazado 6" transform="translate(-207.663 -257.167)"/>
        </g>
        <path id="Trazado_7" d="M17.092 492.743H7v13.585h2.368V500.8h6.851v-2.154H9.368V494.9h7.724v-2.154zm8.619 0v13.585h2.368v-13.585zm21.331 9.393l-7.262-9.393h-2.209v13.585h2.368v-9.665l7.475 9.665h2v-13.585h-2.372v9.393zm17.449-7.181H68.8v-2.212H57.776v2.212h4.308v11.373h2.407v-11.373zm24.087-2.212H86.21v7.821a3.934 3.934 0 0 1-.919 2.833 3.33 3.33 0 0 1-2.516.951 3.285 3.285 0 0 1-2.536-.99 4.11 4.11 0 0 1-.919-2.892v-7.724h-2.367v7.821a7.534 7.534 0 0 0 .408 2.591 5.056 5.056 0 0 0 1.164 1.873 4.815 4.815 0 0 0 1.824 1.135 7.106 7.106 0 0 0 2.387.379 7.253 7.253 0 0 0 2.416-.379 4.745 4.745 0 0 0 1.834-1.145 5.219 5.219 0 0 0 1.174-1.911 7.756 7.756 0 0 0 .417-2.659v-7.7zm20.535 0h-2.368v7.821a3.935 3.935 0 0 1-.919 2.833 3.331 3.331 0 0 1-2.516.951 3.285 3.285 0 0 1-2.536-.99 4.11 4.11 0 0 1-.919-2.892v-7.724h-2.367v7.821a7.538 7.538 0 0 0 .408 2.591 5.056 5.056 0 0 0 1.164 1.873 4.815 4.815 0 0 0 1.824 1.135 7.108 7.108 0 0 0 2.387.379 7.253 7.253 0 0 0 2.416-.379 4.745 4.745 0 0 0 1.834-1.145 5.219 5.219 0 0 0 1.174-1.911 7.752 7.752 0 0 0 .417-2.659v-7.7z" class="cls-2" data-name="Trazado 7" transform="translate(-889.889 -4715.873)"/>
    </g>
</svg>
